<?xml version="1.0" encoding="UTF-8"?>
<svg id="Layer_1" xmlns="http://www.w3.org/2000/svg" viewBox="0 0 49.75 14.59">
  <defs>
    <style>
      .cls-1 {
        fill: #231f20;
      }

      .cls-2 {
        opacity: .3;
      }
    </style>
  </defs>
  <g class="cls-2">
    <path class="cls-1" d="M5.99,9.31c.3-.18.54-.45.72-.79h2.26c-.24.91-.72,1.63-1.43,2.15s-1.57.79-2.57.79-1.85-.26-2.56-.78c-.72-.52-1.21-1.22-1.47-2.11h-.94v-1.07h.76c0-.07-.01-.18-.01-.32,0-.15,0-.27.01-.35h-.76v-1.08h.95c.26-.88.75-1.58,1.47-2.09.72-.52,1.57-.77,2.55-.77s1.86.26,2.57.79,1.19,1.25,1.43,2.16h-2.26c-.18-.34-.42-.61-.72-.79-.3-.18-.65-.27-1.04-.27s-.73.08-1.03.25-.55.41-.73.72h2v1.08h-2.34c0,.07-.01.19-.01.35,0,.14,0,.25.01.32h2.34v1.07h-2.03c.18.33.43.58.74.76.31.18.66.26,1.05.26s.74-.09,1.04-.28Z"/>
    <path class="cls-1" d="M14.63,0l-3.22,13.64h-1.98L12.65,0h1.98Z"/>
    <path class="cls-1" d="M18.44,4.95c.36-.21.76-.32,1.2-.32v2.17h-.56c-.51,0-.9.11-1.15.33-.26.22-.38.61-.38,1.16v3.11h-2.05v-6.7h2.05v1.12c.24-.37.54-.66.9-.87Z"/>
    <path class="cls-1" d="M26.9,8.54h-4.64c.03.42.17.73.4.95s.53.33.87.33c.51,0,.87-.22,1.07-.65h2.18c-.11.44-.31.84-.61,1.19-.29.35-.66.63-1.1.83-.44.2-.93.3-1.48.3-.66,0-1.24-.14-1.75-.42-.51-.28-.91-.68-1.2-1.2s-.43-1.13-.43-1.82.14-1.3.43-1.82c.28-.52.68-.92,1.19-1.2.51-.28,1.1-.42,1.76-.42s1.22.14,1.73.41c.5.27.9.66,1.18,1.16.28.5.43,1.09.43,1.76,0,.19-.01.39-.04.6ZM24.84,7.4c0-.35-.12-.63-.36-.84-.24-.21-.54-.31-.9-.31s-.63.1-.87.3c-.24.2-.38.48-.44.85h2.57Z"/>
    <path class="cls-1" d="M30.9,4.9c.35-.19.76-.29,1.24-.29.55,0,1.05.14,1.5.42.45.28.8.68,1.06,1.2s.39,1.12.39,1.81-.13,1.29-.39,1.82-.61.93-1.06,1.21c-.45.28-.95.43-1.5.43-.46,0-.87-.1-1.23-.29s-.63-.44-.83-.74v4.13h-2.05V4.7h2.05v.95c.2-.31.48-.56.83-.76ZM32.57,6.83c-.28-.29-.63-.44-1.05-.44s-.75.15-1.04.44c-.28.3-.43.7-.43,1.21s.14.92.43,1.21c.28.3.63.44,1.04.44s.76-.15,1.04-.45c.29-.3.43-.71.43-1.22s-.14-.91-.43-1.21Z"/>
    <path class="cls-1" d="M36.15,6.23c.26-.52.61-.92,1.06-1.2.45-.28.95-.42,1.5-.42.47,0,.89.1,1.24.29s.63.44.82.76v-.95h2.05v6.7h-2.05v-.95c-.2.31-.48.56-.83.76s-.77.29-1.24.29c-.54,0-1.04-.14-1.49-.43-.45-.28-.8-.69-1.06-1.21-.26-.52-.39-1.13-.39-1.82s.13-1.29.39-1.81ZM40.35,6.84c-.28-.3-.63-.44-1.04-.44s-.75.15-1.04.44c-.28.29-.43.69-.43,1.21s.14.92.43,1.22c.28.3.63.45,1.04.45s.75-.15,1.04-.44c.28-.3.43-.7.43-1.21s-.14-.92-.43-1.21Z"/>
    <path class="cls-1" d="M45.48,11.2c-.46-.2-.82-.47-1.08-.82-.26-.35-.41-.74-.44-1.17h2.03c.02.23.13.42.32.56.19.14.43.22.71.22.26,0,.45-.05.59-.15.14-.1.21-.23.21-.39,0-.19-.1-.33-.3-.43-.2-.09-.52-.19-.97-.31-.48-.11-.88-.23-1.2-.35s-.6-.32-.83-.59c-.23-.27-.35-.63-.35-1.09,0-.38.11-.73.32-1.05.21-.32.52-.57.94-.75.41-.18.9-.28,1.47-.28.84,0,1.5.21,1.99.62.48.42.76.97.83,1.66h-1.9c-.03-.23-.13-.42-.31-.55-.17-.14-.4-.2-.68-.2-.24,0-.42.05-.55.14s-.19.22-.19.38c0,.19.1.34.31.43.2.1.52.19.95.29.5.13.9.25,1.21.38s.59.32.82.6c.24.28.36.65.37,1.11,0,.39-.11.74-.33,1.05-.22.31-.54.55-.95.73s-.89.26-1.43.26c-.58,0-1.1-.1-1.56-.3Z"/>
  </g>
</svg>